<?xml version="1.0" encoding="UTF-8" standalone="no"?>
<!DOCTYPE svg PUBLIC "-//W3C//DTD SVG 20010904//EN"
              "http://www.w3.org/TR/2001/REC-SVG-20010904/DTD/svg10.dtd">

<svg xmlns="http://www.w3.org/2000/svg"
     width="1.38889in" height="1.38889in"
     viewBox="0 0 100 100">
  <path id="Selection #2"
        fill="none" stroke="black" stroke-width="1"
        d="M 73.00,0.00
           C 74.49,3.76 73.99,8.00 74.00,12.00
             74.02,22.48 76.25,28.62 74.00,40.00
             77.26,40.00 89.28,39.35 91.40,41.02
             93.74,42.87 92.89,48.83 92.83,51.58
             92.83,51.58 92.00,73.00 92.00,73.00
             92.00,73.00 80.00,73.00 80.00,73.00
             80.00,73.00 80.00,52.00 80.00,52.00
             80.00,52.00 74.00,52.00 74.00,52.00
             74.00,52.00 74.00,73.00 74.00,73.00
             74.00,73.00 64.00,73.00 64.00,73.00
             66.67,80.12 67.51,88.66 61.66,94.53
             56.04,100.18 49.51,100.79 42.00,99.56
             39.67,99.18 36.44,98.65 35.02,96.57
             33.57,94.44 34.00,87.75 34.00,85.00
             34.00,85.00 42.00,88.15 42.00,88.15
             50.12,90.74 55.26,85.31 52.81,80.00
             51.24,76.61 46.73,73.57 44.04,70.91
             37.95,64.89 35.99,59.30 38.00,51.00
             33.90,55.10 20.29,69.82 16.00,71.40
             13.48,72.33 4.22,72.00 1.00,72.00
             7.54,62.87 27.99,44.31 37.00,35.91
             37.00,35.91 73.00,0.00 73.00,0.00 Z
           M 83.00,17.74
           C 86.88,16.81 90.56,16.57 93.77,19.43
             99.14,24.20 97.66,34.33 90.00,37.10
             83.45,39.46 76.02,33.94 76.29,27.00
             76.47,22.32 79.18,19.80 83.00,17.74 Z
           M 63.00,27.00
           C 58.79,30.01 51.49,36.56 49.00,41.00
             49.00,41.00 63.00,40.00 63.00,40.00
             63.00,40.00 63.00,27.00 63.00,27.00 Z
           M 62.00,52.16
           C 60.16,52.00 55.61,51.89 54.04,52.16
             42.46,55.41 58.24,68.31 62.00,71.00
             62.00,71.00 62.00,52.16 62.00,52.16 Z" />
</svg>
