<?xml version="1.0" standalone="yes"?>
<svg xmlns="http://www.w3.org/2000/svg" width="179" height="69">
<path style="fill:#ffffff; stroke:none;" d="M0 0L0 69L179 69L179 0L0 0z"/>
<path style="fill:#858585; stroke:none;" d="M4.60339 6.02778C1.78371 8.26101 3 14.8492 3 18L3 53C3 56.471 1.49328 64.5147 5.3179 66.3966C13.8925 70.6159 32.4325 67 42 67L135 67L163 67C166.122 67 171.779 68.0457 174.397 65.9722C177.216 63.739 176 57.1508 176 54L176 19C176 15.529 177.507 7.48535 173.682 5.6034C165.107 1.38414 146.567 5 137 5L44 5L16 5C12.8785 5 7.22142 3.95426 4.60339 6.02778z"/>
<path style="fill:#0e0e0d; stroke:none;" d="M4 6L4 66L175 66L175 6L4 6z"/>
<path style="fill:#858585; stroke:none;" d="M6.60339 8.02778C3.78371 10.261 5 16.8492 5 20L5 52C5 55.3327 3.63484 62.5843 7.3179 64.3966C15.8925 68.6159 34.4325 65 44 65L134 65L162 65C164.91 65 169.948 65.9117 172.397 63.9722C175.216 61.739 174 55.1507 174 52L174 20C174 16.6672 175.365 9.4157 171.682 7.6034C163.107 3.38413 144.567 7 135 7L45 7L17 7C14.0897 7 9.05221 6.08828 6.60339 8.02778z"/>
<path style="fill:#f9f801; stroke:none;" d="M6 8L6 64L173 64L173 8L6 8z"/>
<path style="fill:#858585; stroke:none;" d="M51 25L52 26L51 25z"/>
<path style="fill:#c71a01; stroke:none;" d="M44 46L58 40L62 46L55 25C48.1026 27.1719 46.0645 39.6661 44 46M66 25L66 46L76 46L76 44C65.349 43.6531 68 33.0349 68 25L66 25z"/>
<path style="fill:#858585; stroke:none;" d="M68 25L68 43L69 43L68 25M77 25L84 28L84 27L77 25z"/>
<path style="fill:#c71a01; stroke:none;" d="M78 25L78 27L84 27L84 46L87 46L87 27L93 27L93 25L78 25z"/>
<path style="fill:#858585; stroke:none;" d="M96 25L97 26L96 25z"/>
<path style="fill:#c71a01; stroke:none;" d="M96 46L99 46L99 36L110 46L105 35C113.226 30.1897 103.428 21.4296 97.6034 26.0278C93.837 29.0008 96 41.5785 96 46z"/>
<path style="fill:#858585; stroke:none;" d="M105 25L106 26L105 25M118 25L119 26L118 25z"/>
<path style="fill:#c71a01; stroke:none;" d="M119.015 25.7431C107.764 30.1191 113.52 50.413 125.906 44.99C135.875 40.6251 130.969 21.0937 119.015 25.7431z"/>
<path style="fill:#858585; stroke:none;" d="M55 26L56 27L55 26M107 26L108 27L107 26M116 26L117 27L116 26M87 27L87 28L93 28L87 27z"/>
<path style="fill:#f9f801; stroke:none;" d="M99 27L99 34C106.467 33.4303 106.298 27.8226 99 27z"/>
<path style="fill:#858585; stroke:none;" d="M103 27L104 28L103 27M115 27L116 28L115 27M121 27L121 28L124 28L121 27M118 28L117 30L118 28z"/>
<path style="fill:#f9f801; stroke:none;" d="M119.228 29.0285C112.377 33.1684 117.92 47.0132 125.566 41.8202C131.317 37.9146 127.082 24.283 119.228 29.0285z"/>
<path style="fill:#858585; stroke:none;" d="M53 29L54 30L53 29M56 29L57 30L56 29M130 29L131 30L130 29M49 30L50 31L49 30z"/>
<path style="fill:#f9f801; stroke:none;" d="M52 30L50 38L56 38L52 30z"/>
<path style="fill:#858585; stroke:none;" d="M113 30L114 31L113 30M127 30L128 31L127 30M54 31L55 32L54 31M57 31L58 32L57 31M116 31L117 32L116 31M51 32L52 33L51 32M105 32L106 33L105 32M108 32L109 33L108 32M48 33L49 34L48 33M128 33L128 38L129 38L128 33M131 33L131 38L132 38L131 33M55 34L56 35L55 34M58 34L59 35L58 34M50 35L51 36L50 35M105 35L106 36L105 35M47 36L48 37L47 36M102 36L103 37L102 36M106 36L107 37L106 36M56 37L57 38L56 37M59 37L60 38L59 37M104 38L105 39L104 38M107 38L108 39L107 38M116 39L117 40L116 39M57 40L58 41L57 40M60 40L61 41L60 40M108 40L109 41L108 40M113 40L114 41L113 40M127 40L128 41L127 40M45 41L46 42L45 41M48 41L49 42L48 41M117 41L118 42L117 41M61 42L62 43L61 42M114 42L115 43L114 42M118 42L119 43L118 42M125 42L126 43L125 42M129 42L130 43L129 42M58 43L59 44L58 43M69 43L69 44L76 44L69 43M106 43L107 44L106 43M109 43L110 44L109 43M121.667 43.3333L122.333 43.6667L121.667 43.3333M44 44L45 45L44 44M47 44L48 45L47 44M76.3333 44.6667L76.6667 45.3333L76.3333 44.6667M116 44L117 45L116 44M127 44L128 45L127 44M59 45L60 46L59 45M118 45L119 46L118 45M125 45L126 46L125 45z"/>
</svg>
