<?xml version="1.0" standalone="yes"?>
<svg xmlns="http://www.w3.org/2000/svg" width="180" height="72">
<path style="fill:#fffefe; stroke:none;" d="M0 0L0 72L180 72L180 0L0 0z"/>
<path style="fill:#948989; stroke:none;" d="M4.60339 6.02778C1.78371 8.26101 3 14.8492 3 18L3 54C3 57.471 1.49328 65.5147 5.3179 67.3966C13.8925 71.6159 32.4325 68 42 68L135 68L163 68C166.122 68 171.779 69.0457 174.397 66.9722C177.216 64.739 176 58.1508 176 55L176 19C176 15.529 177.507 7.48535 173.682 5.60339C165.107 1.38414 146.567 5 137 5L44 5L16 5C12.8785 5 7.22142 3.95426 4.60339 6.02778z"/>
<path style="fill:#0e0d0d; stroke:none;" d="M4 6L4 67L175 67L175 6L4 6z"/>
<path style="fill:#970505; stroke:none;" d="M6.60339 8.02777C3.78371 10.261 5 16.8492 5 20L5 53C5 56.3327 3.63484 63.5843 7.3179 65.3966C15.8926 69.6159 34.4325 66 44 66L134 66L162 66C164.91 66 169.948 66.9117 172.397 64.9722C175.216 62.739 174 56.1508 174 53L174 20C174 16.6673 175.365 9.4157 171.682 7.60339C163.107 3.38414 144.567 7 135 7L45 7L17 7C14.0897 7 9.0522 6.08829 6.60339 8.02777z"/>
<path style="fill:#fe0303; stroke:none;" d="M6 8L6 65L173 65L173 8L6 8z"/>
<path style="fill:#fffefe; stroke:none;" d="M129 11L129 27L112 27L112 45L129 45L129 61L146 61L146 45L162 45L162 27L146 27L146 11L129 11M24 22L24 52L29 52L29 29L30 29C31.6348 38.1712 37.8468 51.8797 48 52L48 22L43 22L43 43C37.8912 34.2471 35.8075 22.1395 24 22z"/>
<path style="fill:#948989; stroke:none;" d="M31 22L32 23L31 22z"/>
<path style="fill:#fffefe; stroke:none;" d="M52 52C56.8386 51.6262 58.4613 49.7799 59 45L69.5818 46.027L79 52C78.0785 45.7603 73.042 21.5886 65.0363 22.2068C57.7083 22.7726 52.9067 45.8604 52 52M81 22L81 27L93 27C88.525 35.0683 81.23 42.4419 81 52L101 52L101 47L88 47C93.0567 39.3579 99.7777 31.4563 100 22L81 22z"/>
<path style="fill:#948989; stroke:none;" d="M32 23L33 24L32 23M42 23L42 37L43 37L42 23M48 23L48 50L49 50L48 23M100 23L100 27L101 27L100 23M23 24L23 51L24 51L23 24M60 25L61 26L60 25M70 25L71 26L70 25z"/>
<path style="fill:#970505; stroke:none;" d="M77 26L78 46L79 46L79 26L77 26M103 26L103 28L115 27L103 26M90 27L87 36L88 36L93 27L90 27z"/>
<path style="fill:#948989; stroke:none;" d="M59 28L60 29L59 28M65 28L64 31L65 31L65 28M71 28L72 29L71 28M92 28L93 29L92 28M99 28L100 29L99 28M29 29L30 30L29 29z"/>
<path style="fill:#fe0303; stroke:none;" d="M65.3333 29.6667L65.6667 30.3333L65.3333 29.6667M91 29L92 30L91 29z"/>
<path style="fill:#948989; stroke:none;" d="M36 30L37 31L36 30z"/>
<path style="fill:#970505; stroke:none;" d="M64 31L64 40L66 40L66 31L64 31z"/>
<path style="fill:#948989; stroke:none;" d="M66 31L67 32L66 31M90 31L91 32L90 31z"/>
<path style="fill:#970505; stroke:none;" d="M111 31L103 47L116 47L116 45L105 45C107.673 41.0375 112.612 35.969 111 31z"/>
<path style="fill:#948989; stroke:none;" d="M37 32L38 33L37 32z"/>
<path style="fill:#fe0303; stroke:none;" d="M66 32C66 35.5105 65.0129 39.1456 69 40L66 32z"/>
<path style="fill:#948989; stroke:none;" d="M63 33L64 34L63 33M96 33L97 34L96 33M38 34L39 35L38 34z"/>
<path style="fill:#fe0303; stroke:none;" d="M63 34L62 40L64 40L63 34z"/>
<path style="fill:#948989; stroke:none;" d="M67 34L68 35L67 34M88 34L89 35L88 34M29 35L29 51L30 51L29 35z"/>
<path style="fill:#970505; stroke:none;" d="M95 35L92 40L92 41L97 41L100 47L95 35z"/>
<path style="fill:#fe0303; stroke:none;" d="M111 35L105 45L112 45L111 35z"/>
<path style="fill:#948989; stroke:none;" d="M39 36L40 37L39 36M74 36L75 37L74 36M87 36L88 37L87 36M94 36L95 37L94 36M68 37L69 38L68 37z"/>
<path style="fill:#fe0303; stroke:none;" d="M94 37L93 39L95 39L94 37z"/>
<path style="fill:#948989; stroke:none;" d="M40 38L41 39L40 38M55 39L56 40L55 39M61 39L62 40L61 39M75 39L76 40L75 39M85 39L86 40L85 39M92 39L93 40L92 39M41 40L42 41L41 40M35 41L36 42L35 41z"/>
<path style="fill:#fe0303; stroke:none;" d="M88 47L98 47L97 41C92.0878 41.1632 90.3493 42.7521 88 47z"/>
<path style="fill:#948989; stroke:none;" d="M42 42L43 43L42 42M54 42L55 43L54 42M76 42L77 43L76 42M83 42L84 43L83 42M36 43L37 44L36 43M89 44L90 45L89 44M37 45L38 46L37 45M53 45L54 46L53 45M59 45L60 46L59 45z"/>
<path style="fill:#970505; stroke:none;" d="M64 45L64 47L66 45L64 45z"/>
<path style="fill:#948989; stroke:none;" d="M77 45L78 46L77 45M38 47L39 48L38 47M71 47L72 48L71 47M52 48L53 49L52 48M78 48L79 49L78 48M80 48L80 51L81 51L80 48M39 49L40 50L39 49M72 50L73 51L72 50M57 51L58 52L57 51z"/>
</svg>
