<?xml version="1.0" standalone="yes"?>
<svg xmlns="http://www.w3.org/2000/svg" width="180" height="68">
<path style="fill:#fffefa; stroke:none;" d="M0 0L0 68L180 68L180 0L0 0z"/>
<path style="fill:#858585; stroke:none;" d="M4.60339 4.02777C1.78371 6.26101 3 12.8492 3 16L3 52C3 55.471 1.49328 63.5147 5.3179 65.3966C14.1076 69.7217 33.1879 66 43 66L136 66L164 66C167.122 66 172.779 67.0457 175.397 64.9722C178.216 62.739 177 56.1508 177 53L177 17C177 13.529 178.507 5.48534 174.682 3.60339C165.892 -0.721703 146.812 3 137 3L44 3L16 3C12.8785 3 7.22141 1.95427 4.60339 4.02777z"/>
<path style="fill:#0e0e0d; stroke:none;" d="M4 4L4 65L176 65L176 4L4 4z"/>
<path style="fill:#858585; stroke:none;" d="M6.60339 6.02778C3.78371 8.26101 5 14.8493 5 18L5 51C5 54.3327 3.63484 61.5843 7.3179 63.3966C15.8925 67.6159 34.4325 64 44 64L135 64L163 64C165.91 64 170.948 64.9117 173.397 62.9722C176.216 60.739 175 54.1508 175 51L175 18C175 14.6673 176.365 7.4157 172.682 5.6034C164.107 1.38413 145.567 5 136 5L45 5L17 5C14.0897 5 9.05221 4.08828 6.60339 6.02778z"/>
<path style="fill:#f8f602; stroke:none;" d="M6 6L6 63L174 63L174 6L6 6z"/>
<path style="fill:#cc2103; stroke:none;" d="M44 41C29.4835 44.1661 29.4835 24.8339 44 28C38.3748 18.3713 27.8807 28.4927 29.5725 36.9992C30.9724 44.0377 39.9498 47.9318 44 41z"/>
<path style="fill:#858585; stroke:none;" d="M41 24L42 25L41 24z"/>
<path style="fill:#cc2103; stroke:none;" d="M53.0185 24.7431C41.9178 29.0923 47.4954 49.1057 59.956 44.1057C70.8596 39.7305 65.0906 20.0132 53.0185 24.7431z"/>
<path style="fill:#858585; stroke:none;" d="M60 24L61 25L60 24z"/>
<path style="fill:#cc2103; stroke:none;" d="M75.044 24.7431C64.3966 29.021 69.9038 48.8971 81.9815 44.2539C93.1852 39.9467 87.5023 19.7375 75.044 24.7431z"/>
<path style="fill:#858585; stroke:none;" d="M82 24L83 25L82 24M92 24L92 44L93 44L92 24z"/>
<path style="fill:#cc2103; stroke:none;" d="M93 24L93 45L103 45L103 43C92.349 42.6531 95 32.0349 95 24L93 24M128 41C113.301 44.0047 113.301 24.9953 128 28C122.142 17.9735 111.065 29.2153 113.573 37.9961C115.503 44.7539 124.214 47.481 128 41z"/>
<path style="fill:#858585; stroke:none;" d="M125 24L126 25L125 24M43 25L44 26L43 25M84 25L85 26L84 25M38.6667 26.3333L39.3333 26.6667L38.6667 26.3333M55 26L55 27L58 27L55 26M63 26L64 27L63 26M78.6667 26.3333L79.3333 26.6667L78.6667 26.3333M121.667 26.3333L122.333 26.6667L121.667 26.3333z"/>
<path style="fill:#f8f602; stroke:none;" d="M53.2284 28.0285C46.3245 32.1939 51.8585 45.8633 59.7215 40.9715C66.4361 36.7941 61.1543 23.2466 53.2284 28.0285M75.3032 28.0285C68.8644 32.1359 73.8459 45.7533 81.7716 40.9715C88.6711 36.8088 83.0895 23.0616 75.3032 28.0285z"/>
<path style="fill:#858585; stroke:none;" d="M70 28L71 29L70 28M83 28L84 29L83 28M114 28L115 29L114 28M127 28L128 29L127 28M33 29L34 30L33 29z"/>
<path style="fill:#cc2103; stroke:none;" d="M24 40L24 42L16 41C18.283 48.8048 32.9629 40.6974 19 35L19 33L25 33C20.7893 26.5294 13.0147 35.3399 24 40z"/>
<path style="fill:#858585; stroke:none;" d="M24 30L25 31L24 30M47 30L48 31L47 30M84 30L85 31L84 30M113 30L114 31L113 30z"/>
<path style="fill:#cc2103; stroke:none;" d="M132 30L134 44.5L144 45L144 30L142 30C141.99 43.204 134.009 43.3684 134 30L132 30z"/>
<path style="fill:#858585; stroke:none;" d="M141 30L141 40L142 40L141 30z"/>
<path style="fill:#cc2103; stroke:none;" d="M149 30L149 51L152 51L152 43C159.448 46.887 166.262 37.69 160.258 31.7431C157.597 29.1081 152.421 30.7989 149 30z"/>
<path style="fill:#858585; stroke:none;" d="M151 30L151 32L153 32L151 30M159 30L160 31L159 30M25.3333 31.6667L25.6667 32.3333L25.3333 31.6667M29.3333 31.6667L29.6667 32.3333L29.3333 31.6667M62 31L63 32L62 31M65 31L66 32L65 31M69.3333 31.6667L69.6667 32.3333L69.3333 31.6667M116 31L117 32L116 31M32 32L33 33L32 32M72 32L73 33L72 32z"/>
<path style="fill:#f8f602; stroke:none;" d="M155.093 32.9707C150.952 34.0464 151.241 42.5234 155.95 41.963C160.971 41.3653 160.305 31.6169 155.093 32.9707z"/>
<path style="fill:#858585; stroke:none;" d="M157 32L158 33L157 32M161 32L162 33L161 32M16 33L16 36L17 36L16 33M159 35L160 36L159 35M162 35L162 40L163 40L162 35M22 36L23 37L22 36M32 36L33 37L32 36M69.3333 36.6667L69.6667 37.3333L69.3333 36.6667M72 36L73 37L72 36M18 37L19 38L18 37M24 37L25 38L24 37M29 37L30 38L29 37M62 37L63 38L62 37M65 37L66 38L65 37M116 37L117 38L116 37M47 38L48 39L47 38M87 38L88 39L87 38M113 38L114 39L113 38M33 39L34 40L33 39M159 39L160 40L159 39M30 40L31 41L30 40M64 40L65 41L64 40M127 40L128 41L127 40M17 41L18 42L17 41M23 41L24 42L23 41M44.3333 41.6667L44.6667 42.3333L44.3333 41.6667M158 41L159 42L158 41M19 42L20 43L19 42M38.6667 42.3333L39.3333 42.6667L38.6667 42.3333M55.6667 42.3333L56.3333 42.6667L55.6667 42.3333M77 42L77 43L80 43L77 42M96 42L96 43L103 43L96 42M115 42L116 43L115 42M121.667 42.3333L122.333 42.6667L121.667 42.3333M136 42L137 43L136 42M138 42L139 43L138 42M43 43L44 44L43 43M50 43L51 44L50 43M152 43L153 44L152 43M160 43L161 44L160 43M18 44L19 45L18 44M23 44L24 45L23 44M34.6667 44.3333L35.3333 44.6667L34.6667 44.3333M41 44L42 45L41 44M52 44L53 45L52 44M59 44L60 45L59 44M74.6667 44.3333L75.3333 44.6667L74.6667 44.3333M118 44L119 45L118 44M125 44L126 45L125 44z"/>
<path style="fill:#fffefa; stroke:none;" d="M15 45L15 46L34 47L34 46L15 45z"/>
<path style="fill:#f8f602; stroke:none;" d="M20.6667 45.3333L21.3333 45.6667L20.6667 45.3333z"/>
<path style="fill:#fffefa; stroke:none;" d="M35 45L35 46L38 47L35 45z"/>
<path style="fill:#f8f602; stroke:none;" d="M37.6667 45.3333L38.3333 45.6667L37.6667 45.3333z"/>
<path style="fill:#fffefa; stroke:none;" d="M39 45L39 46L42 47L39 45M43 45L43 46L46 47L43 45M47 45L47 46L50 47L47 45M51 45L51 46L54 47L51 45z"/>
<path style="fill:#f8f602; stroke:none;" d="M53.6667 45.3333L54.3333 45.6667L53.6667 45.3333z"/>
<path style="fill:#fffefa; stroke:none;" d="M55 45L55 46L58 47L55 45z"/>
<path style="fill:#f8f602; stroke:none;" d="M57.6667 45.3333L58.3333 45.6667L57.6667 45.3333z"/>
<path style="fill:#fffefa; stroke:none;" d="M59 45L59 46L62 47L59 45M63 45L63 46L66 47L63 45M67 45L67 46L70 47L67 45M71 45L71 46L74 47L71 45M75 45L75 46L78 47L75 45z"/>
<path style="fill:#f8f602; stroke:none;" d="M77.6667 45.3333L78.3333 45.6667L77.6667 45.3333z"/>
<path style="fill:#fffefa; stroke:none;" d="M79 45L79 46L82 47L79 45M83 45L83 46L86 47L83 45M87 45L87 46L90 47L87 45M91 45L91 46L94 47L91 45z"/>
<path style="fill:#f8f602; stroke:none;" d="M93.6667 45.3333L94.3333 45.6667L93.6667 45.3333z"/>
<path style="fill:#fffefa; stroke:none;" d="M95 45L95 46L98 47L95 45z"/>
<path style="fill:#f8f602; stroke:none;" d="M97.6667 45.3333L98.3333 45.6667L97.6667 45.3333z"/>
<path style="fill:#fffefa; stroke:none;" d="M99 45L99 46L102 47L99 45z"/>
<path style="fill:#cc2103; stroke:none;" d="M15 46L16 47L15 46M18.6667 46.3333L19.3333 46.6667L18.6667 46.3333M22.6667 46.3333L23.3333 46.6667L22.6667 46.3333M26 46L26 47L103 48L103 47L26 46z"/>
<path style="fill:#858585; stroke:none;" d="M28 46L29 47L28 46M30 46L31 47L30 46M34 46L35 47L34 46M38 46L39 47L38 46M42 46L43 47L42 46M46 46L47 47L46 46M50 46L51 47L50 46M54 46L55 47L54 46M58 46L59 47L58 46M62 46L63 47L62 46M66 46L67 47L66 46M70 46L71 47L70 46M74 46L75 47L74 46M78 46L79 47L78 46M82 46L83 47L82 46M86 46L87 47L86 46M90 46L91 47L90 46M94 46L95 47L94 46M98 46L99 47L98 46M102.667 46.3333L103.333 46.6667L102.667 46.3333z"/>
<path style="fill:#cc2103; stroke:none;" d="M16.6667 47.3333L17.3333 47.6667L16.6667 47.3333M20.6667 47.3333L21.3333 47.6667L20.6667 47.3333M24.6667 47.3333L25.3333 47.6667L24.6667 47.3333z"/>
<path style="fill:#858585; stroke:none;" d="M32 47L33 48L32 47M36 47L37 48L36 47M40 47L41 48L40 47M44 47L45 48L44 47M48 47L49 48L48 47M52 47L53 48L52 47M56 47L57 48L56 47M60 47L61 48L60 47M64 47L65 48L64 47M68 47L69 48L68 47M72 47L73 48L72 47M76 47L77 48L76 47M80 47L81 48L80 47M84 47L85 48L84 47M88 47L89 48L88 47M92 47L93 48L92 47M96 47L97 48L96 47M100 47L101 48L100 47z"/>
</svg>
