<?xml version="1.0" standalone="yes"?>
<svg xmlns="http://www.w3.org/2000/svg" width="177" height="68">
<path style="fill:#fffdf7; stroke:none;" d="M0 0L0 68L177 68L177 0L0 0z"/>
<path style="fill:#868585; stroke:none;" d="M3.6034 4.02777C0.783708 6.26101 2 12.8492 2 16L2 52C2 55.471 0.493282 63.5147 4.3179 65.3966C12.8925 69.6159 31.4325 66 41 66L134 66L162 66C165.122 66 170.779 67.0457 173.397 64.9722C176.216 62.739 175 56.1508 175 53L175 17C175 13.529 176.507 5.48535 172.682 3.60339C164.107 -0.615868 145.567 3 136 3L43 3L15 3C11.8785 3 6.22141 1.95427 3.6034 4.02777z"/>
<path style="fill:#0e0e0d; stroke:none;" d="M3 4L3 65L174 65L174 4L3 4z"/>
<path style="fill:#868585; stroke:none;" d="M5.60339 6.02778C2.78371 8.26101 4 14.8493 4 18L4 51C4 54.3327 2.63484 61.5843 6.3179 63.3966C14.8925 67.6159 33.4325 64 43 64L133 64L161 64C163.91 64 168.948 64.9117 171.397 62.9722C174.216 60.739 173 54.1508 173 51L173 18C173 14.6673 174.365 7.4157 170.682 5.6034C162.107 1.38414 143.567 5 134 5L44 5L16 5C13.0897 5 8.05221 4.08828 5.60339 6.02778z"/>
<path style="fill:#f8f602; stroke:none;" d="M5 6L5 63L172 63L172 6L5 6z"/>
<path style="fill:#868585; stroke:none;" d="M25 24L26 25L25 24z"/>
<path style="fill:#cf2103; stroke:none;" d="M22 41C23.5088 46.1579 32.422 46.4504 34.1296 40.9352C35.3843 36.8829 19.1157 23.5008 33 28C31.3019 22.8844 23.656 23.0741 23.2068 29.0285C22.825 34.0896 38.0382 45.1198 22 41M68 24L68 27L71 26L71 25L68 24z"/>
<path style="fill:#868585; stroke:none;" d="M70 24L71 25L70 24z"/>
<path style="fill:#cf2103; stroke:none;" d="M118 41C103.301 44.0047 103.301 24.9953 118 28C112.142 17.9735 101.065 29.2152 103.573 37.9961C105.503 44.7539 114.214 47.481 118 41z"/>
<path style="fill:#868585; stroke:none;" d="M115 24L116 25L115 24M67 25L68 26L67 25M27 26L28 27L27 26M33.3333 26.6667L33.6667 27.3333L33.3333 26.6667M70 26L71 27L70 26z"/>
<path style="fill:#cf2103; stroke:none;" d="M93 26L91 30L91 31L91 32C91.6202 32.6202 97.5519 53.4246 100 42L97 43L96 32L100 32L100 30L96 30L96 26L93 26z"/>
<path style="fill:#868585; stroke:none;" d="M111.667 26.3333L112.333 26.6667L111.667 26.3333M22 28L22 31L23 31L22 28M104 28L105 29L104 28M117 28L118 29L117 28z"/>
<path style="fill:#cf2103; stroke:none;" d="M39 30L40 47L21 46L21 47L38 47L40 51C45.3895 45.7385 54.9751 47.7531 62 47.7531L118 47.7531C125.193 47.7531 135.534 45.5649 141 51L157 47L157 46C130.941 47.9616 104.137 46.2469 78 46.2469C66.4884 46.2469 50.8261 48.9767 40 45C42.9689 44.375 46.3015 45.6846 49 44.1667C53.2195 41.7932 53.3259 32.9333 49 30.5C46.0247 28.8264 42.1849 31.0237 39 30z"/>
<path style="fill:#868585; stroke:none;" d="M43 30L44 31L43 30z"/>
<path style="fill:#cf2103; stroke:none;" d="M56 30C56 34.9125 54.436 42.0412 59 45C59.0006 39.802 58.2052 33.1364 65 33L56 30z"/>
<path style="fill:#868585; stroke:none;" d="M58 30L58 32L60 32L58 30M64 30L65 31L64 30z"/>
<path style="fill:#cf2103; stroke:none;" d="M68 30L68 45L70 45L70 30L68 30M75 30L75 45L78 45C78.0014 31.9109 84.9986 31.8974 85 45L88 45C88 32.1844 85.9984 32.5685 75 30z"/>
<path style="fill:#868585; stroke:none;" d="M77 30L77 32L79 32L77 30M103 30L104 31L103 30z"/>
<path style="fill:#cf2103; stroke:none;" d="M122 30C122 34.0007 120.243 42.8829 125 44.6667C128.085 45.8237 130.858 43.99 134 45L134 30L132 30C131.999 43.4679 124.037 43.5272 124 30L122 30z"/>
<path style="fill:#868585; stroke:none;" d="M124 30L124 39L125 39L124 30M139 30L141 46L139 30z"/>
<path style="fill:#cf2103; stroke:none;" d="M140 30L140 45L142 43L143 43C149.464 49.7581 156.92 36.731 150.833 31.3333C147.911 28.7415 143.32 31.0671 140 30z"/>
<path style="fill:#868585; stroke:none;" d="M144 30L145 31L144 30M149 30L150 31L149 30M26 31L27 32L26 31M70 31L70 44L71 44L70 31M86 31L87 32L86 31M106 31L107 32L106 31M134 31L134 45L135 45L134 31M28 32L29 33L28 32M44 32L45 33L44 32z"/>
<path style="fill:#f8f602; stroke:none;" d="M45.0895 33.0602C40.8471 33.7957 41.2977 42.4848 45.9105 41.8241C50.2329 41.205 49.6349 32.2721 45.0895 33.0602z"/>
<path style="fill:#868585; stroke:none;" d="M62 32L63 33L62 32z"/>
<path style="fill:#f8f602; stroke:none;" d="M78 46L84 46C84.7118 43.5918 85.7819 28.4415 79.5988 33.8009C76.8057 36.2219 78 42.7019 78 46z"/>
<path style="fill:#868585; stroke:none;" d="M145 32L146 33L145 32z"/>
<path style="fill:#f8f602; stroke:none;" d="M145.95 33.1759C140.875 33.8634 141.742 42.7963 146.791 41.9398C151.022 41.2221 150.554 32.5522 145.95 33.1759z"/>
<path style="fill:#868585; stroke:none;" d="M147 32L148 33L147 32M30 33L31 34L30 33M51 33L52 34L51 33M60 33L61 34L60 33M87 33L88 34L87 33M143 33L144 34L143 33M59 34L60 35L59 34M142 34L143 35L142 34M149 34L150 35L149 34M152 34L153 35L152 34M33 35L34 36L33 35M41 35L41 40L42 40L41 35M34 37L35 38L34 37M106 37L107 38L106 37M103 38L104 39L103 38M31 40L32 41L31 40M34 40L35 41L34 40M117 40L118 41L117 40M131 40L132 41L131 40M142 40L143 41L142 40M152 40L153 41L152 40M23 41L24 42L23 41M143 41L144 42L143 41M27.6667 42.3333L28.3333 42.6667L27.6667 42.3333M44 42L45 43L44 42M46 42L47 43L46 42M93 42L94 43L93 42M105 42L106 43L105 42M111.667 42.3333L112.333 42.6667L111.667 42.3333M122 42L123 43L122 42M126 42L127 43L126 42M128 42L129 43L128 42M147 42L148 43L147 42M151 42L152 43L151 42z"/>
<path style="fill:#f8f602; stroke:none;" d="M131 43L130 46L131 43z"/>
<path style="fill:#868585; stroke:none;" d="M142 43L143 44L142 43M24 44L25 45L24 44M41 44L40 46L41 44z"/>
<path style="fill:#f8f602; stroke:none;" d="M42 44L42 46L44 46L42 44z"/>
<path style="fill:#868585; stroke:none;" d="M43 44L44 45L43 44M48 44L49 45L48 44M56 44L57 45L56 44M108 44L109 45L108 44M115 44L116 45L115 44M124 44L125 45L124 44M129 44L130 45L129 44z"/>
<path style="fill:#f8f602; stroke:none;" d="M142 44L142 46L144 46L144 44L142 44z"/>
<path style="fill:#868585; stroke:none;" d="M144 44L145 45L144 44M148 44L149 45L148 44z"/>
<path style="fill:#fffdf7; stroke:none;" d="M21 45L22 46L21 45M24 45L24 46L30 46L30 45L24 45z"/>
<path style="fill:#f8f602; stroke:none;" d="M26.6667 45.3333L27.3333 45.6667L26.6667 45.3333z"/>
<path style="fill:#fffdf7; stroke:none;" d="M32.6667 45.3333L33.3333 45.6667L32.6667 45.3333M36.6667 45.3333L37.3333 45.6667L36.6667 45.3333M41 45L42 46L41 45M44 45L44 46L50 46L50 45L44 45z"/>
<path style="fill:#f8f602; stroke:none;" d="M46.6667 45.3333L47.3333 45.6667L46.6667 45.3333z"/>
<path style="fill:#fffdf7; stroke:none;" d="M52.6667 45.3333L53.3333 45.6667L52.6667 45.3333M56.6667 45.3333L57.3333 45.6667L56.6667 45.3333M60.6667 45.3333L61.3333 45.6667L60.6667 45.3333M64.6667 45.3333L65.3333 45.6667L64.6667 45.3333M68.6667 45.3333L69.3333 45.6667L68.6667 45.3333M72.6667 45.3333L73.3333 45.6667L72.6667 45.3333M76.6667 45.3333L77.3333 45.6667L76.6667 45.3333M80.6667 45.3333L81.3333 45.6667L80.6667 45.3333M84 45L84 46L90 46L90 45L84 45z"/>
<path style="fill:#f8f602; stroke:none;" d="M86.6667 45.3333L87.3333 45.6667L86.6667 45.3333z"/>
<path style="fill:#fffdf7; stroke:none;" d="M92.6667 45.3333L93.3333 45.6667L92.6667 45.3333M96 45L96 46L102 46L102 45L96 45z"/>
<path style="fill:#f8f602; stroke:none;" d="M98.6667 45.3333L99.3333 45.6667L98.6667 45.3333z"/>
<path style="fill:#fffdf7; stroke:none;" d="M104.667 45.3333L105.333 45.6667L104.667 45.3333M108 45L108 46L118 46L118 45L108 45z"/>
<path style="fill:#f8f602; stroke:none;" d="M110.667 45.3333L111.333 45.6667L110.667 45.3333M114.667 45.3333L115.333 45.6667L114.667 45.3333z"/>
<path style="fill:#fffdf7; stroke:none;" d="M120.667 45.3333L121.333 45.6667L120.667 45.3333M124 45L124 46L130 46L130 45L124 45z"/>
<path style="fill:#f8f602; stroke:none;" d="M126.667 45.3333L127.333 45.6667L126.667 45.3333z"/>
<path style="fill:#fffdf7; stroke:none;" d="M132.667 45.3333L133.333 45.6667L132.667 45.3333M136.667 45.3333L137.333 45.6667L136.667 45.3333M141 45L142 46L141 45M144 45L144 46L150 46L150 45L144 45z"/>
<path style="fill:#f8f602; stroke:none;" d="M146.667 45.3333L147.333 45.6667L146.667 45.3333z"/>
<path style="fill:#fffdf7; stroke:none;" d="M152.667 45.3333L153.333 45.6667L152.667 45.3333M156 45L157 46L156 45M22.6667 46.3333L23.3333 46.6667L22.6667 46.3333M30.6667 46.3333L31.3333 46.6667L30.6667 46.3333M34.6667 46.3333L35.3333 46.6667L34.6667 46.3333M38 46L39 47L38 46z"/>
<path style="fill:#868585; stroke:none;" d="M39 46L40 47L39 46z"/>
<path style="fill:#fffdf7; stroke:none;" d="M42.6667 46.3333L43.3333 46.6667L42.6667 46.3333M50.6667 46.3333L51.3333 46.6667L50.6667 46.3333M54.6667 46.3333L55.3333 46.6667L54.6667 46.3333M58.6667 46.3333L59.3333 46.6667L58.6667 46.3333M62.6667 46.3333L63.3333 46.6667L62.6667 46.3333M66.6667 46.3333L67.3333 46.6667L66.6667 46.3333M70.6667 46.3333L71.3333 46.6667L70.6667 46.3333M74.6667 46.3333L75.3333 46.6667L74.6667 46.3333M78.6667 46.3333L79.3333 46.6667L78.6667 46.3333M82.6667 46.3333L83.3333 46.6667L82.6667 46.3333M90.6667 46.3333L91.3333 46.6667L90.6667 46.3333M94.6667 46.3333L95.3333 46.6667L94.6667 46.3333M102.667 46.3333L103.333 46.6667L102.667 46.3333M106.667 46.3333L107.333 46.6667L106.667 46.3333M118.667 46.3333L119.333 46.6667L118.667 46.3333M122.667 46.3333L123.333 46.6667L122.667 46.3333M130.667 46.3333L131.333 46.6667L130.667 46.3333M134.667 46.3333L135.333 46.6667L134.667 46.3333M138.667 46.3333L139.333 46.6667L138.667 46.3333M142.667 46.3333L143.333 46.6667L142.667 46.3333M150.667 46.3333L151.333 46.6667L150.667 46.3333M154.667 46.3333L155.333 46.6667L154.667 46.3333z"/>
<path style="fill:#868585; stroke:none;" d="M38 48L39 49L38 48M41.3333 48.6667L41.6667 49.3333L41.3333 48.6667M139 48L139 51L140 51L139 48M142 48L143 49L142 48z"/>
</svg>
