<?xml version="1.0" standalone="yes"?>
<svg xmlns="http://www.w3.org/2000/svg" width="67" height="24">
<path style="fill:#9da48c; stroke:none;" d="M0 0L1 1L0 0z"/>
<path style="fill:#6d525e; stroke:none;" d="M1.6034 1.02778C-1.60131 3.56595 -1.4927 21.5216 2.3179 23.3966C6.12193 25.2684 12.8453 24 17 24L50 24C53.9292 24 62.1497 25.5438 65.3966 22.9722C68.6013 20.434 68.4927 2.47845 64.6821 0.603394C60.8781 -1.26842 54.1547 0 50 0L17 0C13.0708 0 4.8503 -1.54382 1.6034 1.02778z"/>
<path style="fill:#9da48c; stroke:none;" d="M66 0L67 1L66 0z"/>
<path style="fill:#d41b2d; stroke:none;" d="M1 1L1 23L24 23L24 9L21 9L21 18L18 18L15 6L24 6L24 1L1 1z"/>
<path style="fill:#5a66ad; stroke:none;" d="M66 23L66 1C60.8211 1 42.2618 -1.81737 39.0671 2.60339C37.4031 4.90603 38.9707 9.35964 38.9707 12C38.9707 14.736 37.146 19.9353 39.6181 21.9722C44.2871 25.8195 60.0536 23 66 23z"/>
<path style="fill:#9da48c; stroke:none;" d="M45.6667 5.33333L46.3333 5.66667L45.6667 5.33333z"/>
<path style="fill:#f1ea1e; stroke:none;" d="M15 6L18 8L18 18L24 6L15 6M25 6L25 18L27 18L27 9L28 9L31 18L33 18L35 10L36 10L36 18C40.179 15.2907 39.0336 10.3413 38 6L32 14C30.2345 10.0567 29.6104 6.79809 25 6z"/>
<path style="fill:#9da48c; stroke:none;" d="M34 6L35 7L34 6M38.3333 6.66667L38.6667 7.33333L38.3333 6.66667M42 6L41 8L42 6z"/>
<path style="fill:#f1ea1e; stroke:none;" d="M43.2284 7.03241C37.1663 10.616 42.5889 20.9367 48.5664 16.9676C53.8261 13.4751 49.5931 3.2699 43.2284 7.03241z"/>
<path style="fill:#9da48c; stroke:none;" d="M49 6L50 7L49 6M29 7L30 8L29 7M50 7L51 8L50 7z"/>
<path style="fill:#6d525e; stroke:none;" d="M16.6667 8.33333L17.3333 8.66667L16.6667 8.33333z"/>
<path style="fill:#5a66ad; stroke:none;" d="M44 8L44 16C48.7735 14.4155 48.7735 9.58451 44 8z"/>
<path style="fill:#9da48c; stroke:none;" d="M47 8L48 9L47 8M27 9L27 18L28 18L27 9M33 9L34 10L33 9M40 9L41 10L40 9M43 9L44 10L43 9M30 10L31 11L30 10M35 10L36 11L35 10M48 10L48 14L49 14L48 10M51 10L51 13L52 13L51 10z"/>
<path style="fill:#5a66ad; stroke:none;" d="M35 11L36 12L35 11z"/>
<path style="fill:#9da48c; stroke:none;" d="M32 12L33 13L32 12M31 13L32 14L31 13M34 13L35 14L34 13M29.3333 14.6667L29.6667 15.3333L29.3333 14.6667M40.3333 14.6667L40.6667 15.3333L40.3333 14.6667M43 14L44 15L43 14M47 15L48 16L47 15M50 15L51 16L50 15M33 16L34 17L33 16M41 16L42 17L41 16M20 17L21 18L20 17M30 17L31 18L30 17M38 17L39 18L38 17M42 17L43 18L42 17M44 18L44 19L47 19L44 18M0 23L1 24L0 23M66 23L67 24L66 23z"/>
</svg>
