<?xml version="1.0" standalone="yes"?>
<svg xmlns="http://www.w3.org/2000/svg" width="179" height="68">
<path style="fill:#ffffff; stroke:none;" d="M0 0L0 68L179 68L179 0L0 0z"/>
<path style="fill:#586db1; stroke:none;" d="M4.60339 4.02777C1.78371 6.26101 3 12.8492 3 16L3 51C3 54.471 1.49328 62.5147 5.3179 64.3966C13.8925 68.6159 32.4325 65 42 65L135 65L163 65C166.122 65 171.779 66.0457 174.397 63.9722C177.216 61.739 176 55.1508 176 52L176 17C176 13.529 177.507 5.48534 173.682 3.60339C165.107 -0.61586 146.567 3 137 3L44 3L16 3C12.8785 3 7.22141 1.95427 4.60339 4.02777z"/>
<path style="fill:#2d1b27; stroke:none;" d="M4 4L4 64L175 64L175 4L4 4z"/>
<path style="fill:#c7253c; stroke:none;" d="M81 62L75 28L74 28L74 49C64.9958 48.3131 63.7915 27.889 68.179 21.3179C72.165 15.3481 78.538 21.7502 80 26L81 26L81 6L25 6C20.607 5.99294 9.13627 2.6786 6.02778 6.6034C1.98335 11.7099 5 28.5894 5 35C5 40.3801 2.15413 58.4488 6.60339 61.9722C10.5827 65.1235 21.1787 62.0019 26 62L81 62z"/>
<path style="fill:#586db1; stroke:none;" d="M81 6C81 17.7565 79.9083 28.1124 85 39C88.5291 33.6842 88.8561 24.9143 93.6489 20.6034C96.7001 17.859 101.415 19.2151 102.566 23.0586C104.166 28.3967 104.166 39.5683 102.682 44.9406C100.859 51.5406 96.2039 46.2366 96.0193 41.9992C95.9324 40.0054 96 37.9954 96 36L96 27L95 27C93.2624 34.5107 90.9134 50.0571 81 48L81 62L173 62L173 6L81 6z"/>
<path style="fill:#f6f40b; stroke:none;" d="M117.001 18.5579C99.245 23.2393 105.936 55.6698 125.999 49.3472C142.585 44.1205 136.442 13.4322 117.001 18.5579M42 19L42 24L50 24L50 49L56 49L56 24C58.3121 23.9918 69.0509 21.4444 61.8472 19.3171C56.0396 17.6021 48.0441 19 42 19M68 19L68 49C77.3239 48.2735 74 33.9942 74 27L75 27C75.7127 31.8261 78.6936 48.7037 84.9468 48.7037C91.1533 48.7037 94.2971 31.7596 95 27L96 27L96 37C96 39.8794 95.2891 44.02 96.6034 46.6813C98.8016 51.1325 102.649 47.1956 102.941 43.9807C103.463 38.2502 104.9 26.5004 102.258 21.3179C97.6302 12.2412 90.4016 25.3876 89.0502 29C87.7844 32.3834 86.5308 35.7267 85 39C81.4552 28.5216 80.5207 19.0097 68 19z"/>
<path style="fill:#586db1; stroke:none;" d="M67 21L67 48L68 48L67 21M79 23L80 24L79 23M119.044 23.7577C110.119 27.102 112.926 48.715 123.892 44.2531C132.52 40.7424 129.862 19.704 119.044 23.7577M74 27L75 28L74 27M75 30L76 31L75 30M76 33L77 34L76 33M77 36L78 37L77 36M78 39L79 40L78 39M79 42L80 43L79 42M80 45L81 46L80 45M73 48L74 49L73 48z"/>
</svg>
